<svg width="104" height="115" viewBox="0 0 104 115" fill="none" xmlns="http://www.w3.org/2000/svg">
<path d="M93.7141 114.226C93.7141 114.226 100.308 115.503 100.999 105.296C101.69 95.0893 103.072 78.7812 103.072 78.7812H89.8818L78.4237 106.821L85.8142 112.33L93.7141 114.226Z" fill=""/>
<path d="M38.2798 26.2017C35.8109 26.3137 33.5246 30.3966 33.2233 32.6314L23.337 105.98C22.7334 110.458 26.6283 114.384 31.581 114.289L81.9947 114.29C84.6145 114.29 86.8057 112.477 87.0556 110.102L95.3499 31.2736C95.6457 28.4621 93.133 26.0666 90.0359 26.2072L38.2798 26.2017Z" fill="white"/>
<path d="M87.4242 105.295L82.9941 114.226H93.8325C93.8325 114.226 86.5084 113.102 87.4242 105.295Z" fill="white"/>
<path d="M61.2817 46.8351H33.843L35.0479 32.1797H62.3131L61.2817 46.8351Z" fill="#6425FE"/>
<path d="M88.3542 35.5642C88.3521 35.6007 83.4407 35.6305 77.3859 35.6305C71.329 35.6305 66.4223 35.6007 66.4249 35.5642C66.4276 35.5278 71.3378 35.498 77.3944 35.498C83.4489 35.498 88.3565 35.5278 88.3542 35.5642Z" fill="#263238"/>
<path d="M88.1992 38.1934C88.1972 38.2299 83.2802 38.2596 77.2183 38.2596C71.1544 38.2596 66.2424 38.2302 66.2448 38.1934C66.2471 38.1569 71.1632 38.1272 77.2268 38.1272C83.2884 38.1275 88.2015 38.1569 88.1992 38.1934Z" fill="#263238"/>
<path d="M88.044 40.8218C88.042 40.8583 83.1195 40.8881 77.0506 40.8881C70.9797 40.8881 66.0621 40.8586 66.0645 40.8218C66.0668 40.7854 70.9884 40.7556 77.0588 40.7556C83.1277 40.7559 88.0464 40.7854 88.044 40.8218Z" fill="#263238"/>
<path d="M79.1331 43.45C79.1308 43.4864 76.1628 43.5162 72.5048 43.5162C68.8454 43.5162 65.8821 43.4864 65.8844 43.45C65.887 43.4135 68.8542 43.384 72.5136 43.384C76.1715 43.384 79.1355 43.4135 79.1331 43.45Z" fill="#263238"/>
<path d="M88.3563 49.8001C88.3542 49.8366 76.1612 49.8663 61.1265 49.8663C46.0862 49.8663 33.9002 49.8369 33.9031 49.8001C33.906 49.7636 46.0962 49.7339 61.1355 49.7339C76.1699 49.7339 88.3586 49.7636 88.3563 49.8001Z" fill="#263238"/>
<path d="M88.2614 51.4195C88.2594 51.456 76.1912 51.4857 61.3101 51.4857C46.4238 51.4857 34.3627 51.4563 34.3656 51.4195C34.3685 51.383 46.434 51.3533 61.3195 51.3533C76.1997 51.3533 88.2635 51.383 88.2614 51.4195Z" fill="#263238"/>
<path d="M87.9249 57.159H33.2991L33.5557 54.0324H88.1081L87.9249 57.159Z" fill="#E0E0E0"/>
<path d="M85.6492 85.8191H30.3513L30.6088 82.6925H85.8336L85.6492 85.8191Z" fill="#E0E0E0"/>
<path d="M54.1207 70.4191H32.2107L32.4673 67.2925H54.3483L54.1207 70.4191Z" fill="#E0E0E0"/>
<path d="M86.556 70.4191H59.1632L59.3841 67.2925H86.7403L86.556 70.4191Z" fill="#E0E0E0"/>
<path d="M64.6726 59.9221C64.6699 59.9585 57.6493 59.9883 48.9933 59.9883C40.3344 59.9883 33.3193 59.9588 33.3225 59.9221C33.3254 59.8856 40.3447 59.8558 49.0033 59.8558C57.6586 59.8558 64.6749 59.8856 64.6726 59.9221Z" fill="#263238"/>
<path d="M87.3134 62.3825C87.3113 62.419 75.1636 62.4488 60.1842 62.4488C45.1995 62.4488 33.0588 62.419 33.0618 62.3825C33.0647 62.3461 45.2098 62.3163 60.1936 62.3163C75.1721 62.3163 87.3154 62.3461 87.3134 62.3825Z" fill="#263238"/>
<path d="M87.1766 64.7129C87.1745 64.7494 75.0145 64.7792 60.0205 64.7792C45.0209 64.7792 32.8679 64.7497 32.8709 64.7129C32.8738 64.6765 45.0311 64.6467 60.0296 64.6467C75.023 64.647 87.1786 64.6765 87.1766 64.7129Z" fill="#263238"/>
<path d="M53.7912 72.3266C53.7886 72.3631 48.8813 72.3929 42.8314 72.3929C36.7798 72.3929 31.8781 72.3634 31.881 72.3266C31.8839 72.2902 36.7903 72.2604 42.8417 72.2604C48.891 72.2607 53.7939 72.2902 53.7912 72.3266Z" fill="#263238"/>
<path d="M53.6162 74.7279C53.6136 74.7644 48.7826 74.7941 42.8276 74.7941C36.8704 74.7941 32.045 74.7644 32.048 74.7279C32.0509 74.6915 36.881 74.662 42.8378 74.662C48.7926 74.662 53.6188 74.6915 53.6162 74.7279Z" fill="#263238"/>
<path d="M53.3488 77.1691C53.3462 77.2055 48.4687 77.2353 42.4563 77.2353C36.4416 77.2353 31.57 77.2058 31.5729 77.1691C31.5758 77.1326 36.4524 77.1028 42.4666 77.1028C48.4787 77.1028 53.3515 77.1326 53.3488 77.1691Z" fill="#263238"/>
<path d="M53.1761 79.5388C53.1735 79.5752 48.2911 79.605 42.2725 79.605C36.2519 79.605 31.375 79.5755 31.3779 79.5388C31.3809 79.5023 36.2621 79.4725 42.2827 79.4725C48.301 79.4725 53.1788 79.5023 53.1761 79.5388Z" fill="#263238"/>
<path d="M85.9888 72.8899C85.9868 72.9263 80.903 72.9561 74.6358 72.9561C68.3662 72.9561 63.2874 72.9263 63.29 72.8899C63.2927 72.8534 68.3749 72.8239 74.6443 72.8239C80.9112 72.8239 85.9909 72.8534 85.9888 72.8899Z" fill="#263238"/>
<path d="M61.4939 73.6558C61.4857 73.6473 61.4884 73.4857 61.4957 73.2164C61.5036 72.9466 61.5164 72.5711 61.5419 72.1244L61.5963 72.1816C61.1317 72.1843 60.6003 72.1875 60.0333 72.1907C60.0175 72.205 60.1697 72.0658 60.1053 72.1247V72.125V72.1259V72.1274L60.105 72.1306L60.1044 72.137L60.1035 72.1501L60.1018 72.1764L60.098 72.2286L60.0906 72.3325C60.0857 72.4013 60.0807 72.4696 60.0757 72.5373C60.0658 72.6721 60.0558 72.8042 60.0462 72.9332C60.026 73.1878 60.0067 73.4297 59.9888 73.6555L59.9344 73.5983C60.39 73.6039 60.7724 73.6167 61.0471 73.6275C61.3216 73.6386 61.4857 73.6473 61.4939 73.6558C61.5021 73.6643 61.3535 73.673 61.0805 73.6838C60.8081 73.6946 60.4087 73.7074 59.9262 73.713L59.8683 73.7136L59.8718 73.6558C59.8855 73.4297 59.9002 73.1881 59.9157 72.9335C59.9242 72.8045 59.933 72.6723 59.9417 72.5376C59.9464 72.4699 59.9511 72.4016 59.9558 72.3328L59.9631 72.2289L59.9666 72.1767L59.9683 72.1504L59.9692 72.1373L59.9698 72.1309L59.9701 72.1277V72.1262V72.1253V72.125C59.9057 72.184 60.0579 72.0442 60.0424 72.0588C60.6088 72.062 61.1399 72.0649 61.6039 72.0679L61.663 72.0681L61.6583 72.125C61.6197 72.5968 61.5796 72.9874 61.5501 73.2535C61.5208 73.5193 61.5021 73.6643 61.4939 73.6558Z" fill="#263238"/>
<path d="M85.815 75.8318C85.8129 75.8682 80.7228 75.898 74.4476 75.898C68.1701 75.898 63.0852 75.8685 63.0875 75.8318C63.0902 75.7953 68.1789 75.7655 74.4561 75.7655C80.7309 75.7655 85.8173 75.7953 85.815 75.8318Z" fill="#263238"/>
<path d="M61.2894 76.5969C61.2812 76.5885 61.2838 76.4268 61.2911 76.1576C61.299 75.8877 61.3119 75.5122 61.3374 75.0656L61.3918 75.1228C60.9266 75.1254 60.3946 75.1286 59.827 75.1318C59.8112 75.1461 59.9634 75.0066 59.899 75.0659V75.0662V75.067V75.0688L59.8987 75.072L59.8981 75.0784L59.8972 75.0915L59.8955 75.1178L59.8917 75.17L59.8844 75.2739C59.8794 75.3427 59.8744 75.411 59.8694 75.4787C59.8595 75.6135 59.8495 75.7456 59.8399 75.8746C59.8197 76.1293 59.8004 76.3711 59.7825 76.5969L59.7281 76.5397C60.1843 76.5453 60.567 76.5581 60.8423 76.5689C61.1167 76.58 61.2812 76.5885 61.2894 76.5969C61.2976 76.6054 61.1486 76.6141 60.8754 76.6249C60.6027 76.6357 60.2027 76.6486 59.7199 76.6541L59.662 76.6547L59.6655 76.5969C59.6793 76.3711 59.6939 76.1293 59.7094 75.8746C59.7179 75.7456 59.7267 75.6135 59.7354 75.4787C59.7401 75.411 59.7445 75.3427 59.7492 75.2739L59.7565 75.17L59.76 75.1178L59.7618 75.0915L59.7626 75.0784L59.7632 75.072L59.7635 75.0688V75.067V75.0662V75.0659C59.6992 75.1248 59.8513 74.9851 59.8358 74.9996C60.4031 75.0028 60.9347 75.0058 61.3994 75.0087L61.4585 75.009L61.4538 75.0659C61.4152 75.5376 61.3751 75.9283 61.3456 76.1943C61.3163 76.4607 61.2976 76.6057 61.2894 76.5969Z" fill="#263238"/>
<path d="M85.6414 78.7726C85.6393 78.809 80.5427 78.8388 74.2597 78.8388C67.9743 78.8388 62.8829 78.8093 62.8853 78.7726C62.8879 78.7361 67.983 78.7064 74.2679 78.7064C80.5509 78.7067 85.6437 78.7361 85.6414 78.7726Z" fill="#263238"/>
<path d="M61.0852 79.5385C61.077 79.53 61.0793 79.3684 61.0869 79.0991C61.0948 78.8293 61.1077 78.4538 61.1332 78.0071L61.1876 78.0643C60.7218 78.067 60.189 78.0702 59.6208 78.0731C59.605 78.0874 59.7574 77.9482 59.6928 78.0071V78.0074V78.0083V78.0101L59.6925 78.0133L59.6919 78.0197L59.691 78.0328L59.6892 78.0591L59.6854 78.1113L59.6781 78.2152C59.6732 78.284 59.6682 78.3523 59.6632 78.42C59.6533 78.5547 59.6433 78.6869 59.6337 78.8159C59.6135 79.0705 59.5942 79.3124 59.5763 79.5382L59.5219 79.481C59.9786 79.4866 60.3619 79.4994 60.6375 79.5102C60.9123 79.5213 61.077 79.53 61.0852 79.5385C61.0934 79.547 60.9444 79.5557 60.6709 79.5665C60.3979 79.577 59.9973 79.5901 59.514 79.5957L59.4561 79.5963L59.4596 79.5385C59.4733 79.3124 59.4879 79.0708 59.5035 78.8161C59.5119 78.6872 59.5207 78.555 59.5295 78.4203C59.5342 78.3526 59.5389 78.2843 59.5435 78.2154L59.5508 78.1116L59.5544 78.0594L59.5561 78.0331L59.557 78.02L59.5576 78.0136L59.5579 78.0104V78.0086V78.0077V78.0074C59.4932 78.0664 59.6457 77.9266 59.6301 77.9412C60.1981 77.9444 60.7303 77.9473 61.1958 77.9503L61.2549 77.9505L61.2502 78.0074C61.2116 78.4792 61.1715 78.8698 61.1419 79.1359C61.1121 79.402 61.0931 79.5472 61.0852 79.5385Z" fill="#263238"/>
<path d="M84.8452 92.2559C84.8431 92.2923 72.6518 92.3221 57.6189 92.3221C42.5807 92.3221 30.3964 92.2926 30.3993 92.2559C30.4022 92.2194 42.5909 92.1896 57.6282 92.1896C72.6603 92.1899 84.8472 92.2194 84.8452 92.2559Z" fill="#263238"/>
<path d="M84.6327 95.8525C84.6307 95.889 72.4209 95.9188 57.3649 95.9188C42.3039 95.9188 30.1008 95.8893 30.1038 95.8525C30.1067 95.8161 42.3138 95.7863 57.3742 95.7863C72.4291 95.7866 84.6348 95.8161 84.6327 95.8525Z" fill="#263238"/>
<path d="M84.418 99.4884C84.4159 99.5249 72.1871 99.5546 57.1083 99.5546C42.0241 99.5546 29.8024 99.5251 29.8053 99.4884C29.8082 99.4519 42.0341 99.4222 57.1176 99.4222C72.1956 99.4225 84.42 99.4519 84.418 99.4884Z" fill="#263238"/>
<path d="M35.7215 103.222C35.6837 103.222 35.9137 99.9454 36.235 95.9048C36.5562 91.8627 36.8471 88.587 36.8845 88.587C36.922 88.587 36.6923 91.8627 36.371 95.9048C36.05 99.9451 35.7592 103.222 35.7215 103.222Z" fill="#263238"/>
<path d="M54.3015 102.782C54.2637 102.782 54.4574 99.6529 54.7339 95.7946C55.0107 91.9349 55.2652 88.8071 55.3027 88.8071C55.3401 88.8071 55.1464 91.9349 54.87 95.7946C54.5937 99.6529 54.3392 102.782 54.3015 102.782Z" fill="#263238"/>
<path d="M73.8004 103.442C73.7627 103.442 73.9368 100.215 74.1896 96.235C74.4424 92.2539 74.6773 89.0272 74.7148 89.0272C74.7522 89.0272 74.5781 92.2536 74.3256 96.235C74.0734 100.215 73.8382 103.442 73.8004 103.442Z" fill="#263238"/>
<path d="M72.1889 106.341C72.1866 106.378 62.594 106.407 50.7658 106.407C38.9338 106.407 29.3474 106.378 29.3503 106.341C29.3533 106.305 38.9441 106.275 50.7755 106.275C62.6028 106.275 72.1913 106.305 72.1889 106.341Z" fill="#263238"/>
<path d="M72.0547 108.435C72.0524 108.471 62.4514 108.501 50.6129 108.501C38.7704 108.501 29.1758 108.472 29.1787 108.435C29.1816 108.398 38.7806 108.369 50.6226 108.369C62.4605 108.369 72.0571 108.398 72.0547 108.435Z" fill="#263238"/>
<path d="M48.5348 110.528C48.5322 110.565 44.158 110.594 38.7662 110.594C33.3726 110.594 29.0039 110.565 29.0068 110.528C29.0098 110.492 33.3831 110.462 38.7764 110.462C44.1679 110.462 48.5375 110.492 48.5348 110.528Z" fill="#263238"/>
<path d="M40.8921 37.4019H38.5013L38.592 36.274H44.7104L44.6226 37.4019H42.2319L41.7546 43.4506H40.4114L40.8921 37.4019Z" fill="white"/>
<path d="M49.618 41.7897H46.0042L45.1633 43.4506H43.7788L47.5836 36.274H48.902L51.6211 43.4506H50.2158L49.618 41.7897ZM49.2535 40.7441L48.1308 37.607L46.5394 40.7441H49.2535Z" fill="white"/>
<path d="M56.7346 43.4506L54.9715 40.7237L52.8292 43.4506H51.2998L54.2558 39.7904L51.981 36.274H53.4951L55.1517 38.8268L57.1618 36.274H58.6142L55.8379 39.7394L58.2845 43.4506H56.7346Z" fill="white"/>
<path d="M69.4265 26.1287L63.4082 89.5309C63.0551 93.077 65.8481 96.1526 69.4221 96.1526C72.4434 96.1526 75.0006 93.9277 75.4099 90.9426L81.6968 26.1369L69.4265 26.1287Z" fill="#E0E0E0"/>
<path d="M12.7697 1.09546C10.9907 1.09546 9.4959 2.42784 9.29723 4.19055L0.604111 86.2479C0.000499041 91.1506 3.23566 96.3267 8.18831 96.2225L63.2223 96.2243L73.4419 4.93128C73.6692 2.91301 72.1498 1.09546 70.1131 1.09546H12.7697Z" fill="white"/>
<path d="M63.9721 88.2254L63.2219 96.0318L69.347 96.2243L70.7028 96.0318C70.7028 96.0318 63.0563 96.0315 63.9721 88.2254Z" fill="white"/>
<path d="M80.9596 35.6302C80.9596 35.6302 81.0594 25.7109 89.7063 26.1424L81.5173 26.1287L80.9596 35.6302Z" fill="#E0E0E0"/>
<path d="M89.3894 26.1427C89.3894 26.1427 89.268 26.1473 89.0312 26.1485C88.913 26.1511 88.7659 26.145 88.5909 26.1543C88.4156 26.1666 88.2132 26.1812 87.9835 26.1972C87.5279 26.2591 86.958 26.3305 86.3189 26.547C85.6802 26.7539 84.9666 27.0838 84.2688 27.6098C83.578 28.1423 82.9156 28.8719 82.3807 29.7891C81.8473 30.7061 81.4365 31.7989 81.1904 33.012C81.1302 33.3154 81.0787 33.6264 81.0418 33.9441C81.0117 34.2633 80.9809 34.5877 80.9496 34.9171C80.8835 35.5773 80.8153 36.2582 80.7451 36.959C80.6044 38.3608 80.4557 39.8426 80.2995 41.3984C79.0402 53.8476 77.3013 71.04 75.3805 90.0295C75.3114 90.6223 75.286 91.2157 75.1567 91.8065C75.0314 92.394 74.8061 92.9591 74.494 93.4697C73.8675 94.4951 72.8958 95.2653 71.827 95.7508C70.7541 96.2418 69.565 96.4276 68.4157 96.3935C67.2682 96.3932 66.1297 96.3932 65.0012 96.3929C60.4877 96.3915 56.134 96.39 51.9865 96.3885C43.6925 96.3824 36.2233 96.3769 29.9496 96.3722C23.6788 96.362 18.6038 96.3538 15.0931 96.348C13.3413 96.3419 11.9802 96.3369 11.0539 96.3337C10.5942 96.3305 10.2431 96.3279 10.0035 96.3261C9.76677 96.3235 9.64563 96.3182 9.64563 96.3182C9.64563 96.3182 9.76677 96.313 10.0035 96.3104C10.2431 96.3086 10.5942 96.306 11.0539 96.3028C11.9802 96.2996 13.341 96.2946 15.0931 96.2885C18.6038 96.2826 23.6788 96.2745 29.9496 96.2643C36.223 96.2596 43.6922 96.2541 51.9865 96.2479C56.134 96.2465 60.4877 96.245 65.0012 96.2435C66.1297 96.2433 67.2679 96.243 68.4157 96.243C69.5568 96.2762 70.7128 96.093 71.7644 95.6128C72.8098 95.1378 73.7569 94.3852 74.364 93.3903C74.6669 92.8944 74.886 92.3462 75.0077 91.7735C75.133 91.204 75.1602 90.603 75.2289 90.0117C77.1668 71.026 78.9214 53.8368 80.1918 41.3903C80.3519 39.835 80.504 38.3535 80.6483 36.952C80.7205 36.2512 80.7905 35.5706 80.8586 34.9107C80.8911 34.5798 80.9227 34.2543 80.954 33.9339C80.9921 33.6136 81.0447 33.3005 81.1068 32.9951C81.3584 31.7742 81.7762 30.6752 82.3178 29.7524C82.8608 28.8296 83.5329 28.0959 84.2325 27.5626C84.9391 27.0357 85.6606 26.7075 86.3049 26.5038C86.9495 26.2909 87.5224 26.2238 87.9803 26.1669C88.2105 26.1535 88.4139 26.1415 88.5897 26.1313C88.765 26.1246 88.9125 26.133 89.031 26.133C89.2685 26.1368 89.3894 26.1427 89.3894 26.1427Z" fill="#263238"/>
<path d="M9.25687 3.94633L8.75391 8.81638L72.9699 8.95233L73.4416 4.73841C73.702 2.70351 72.1118 0.902588 70.0543 0.902588H12.7232C10.9641 0.90288 9.47924 2.20668 9.25687 3.94633Z" fill="#E0E0E0"/>
<path d="M14.7565 6.45921C15.7108 6.45921 16.4843 5.68791 16.4843 4.73647C16.4843 3.78503 15.7108 3.01373 14.7565 3.01373C13.8023 3.01373 13.0288 3.78503 13.0288 4.73647C13.0288 5.68791 13.8023 6.45921 14.7565 6.45921Z" fill="white"/>
<path d="M19.8245 6.45921C20.7787 6.45921 21.5523 5.68791 21.5523 4.73647C21.5523 3.78503 20.7787 3.01373 19.8245 3.01373C18.8703 3.01373 18.0968 3.78503 18.0968 4.73647C18.0968 5.68791 18.8703 6.45921 19.8245 6.45921Z" fill="white"/>
<path d="M24.8924 6.45921C25.8466 6.45921 26.6202 5.68791 26.6202 4.73647C26.6202 3.78503 25.8466 3.01373 24.8924 3.01373C23.9382 3.01373 23.1647 3.78503 23.1647 4.73647C23.1647 5.68791 23.9382 6.45921 24.8924 6.45921Z" fill="white"/>
<path d="M38.5643 26.2049H11.1256L12.3305 11.5495H39.596L38.5643 26.2049Z" fill="#6425FE"/>
<path d="M65.4871 14.8362C65.485 14.8727 60.5736 14.9025 54.5185 14.9025C48.4616 14.9025 43.5549 14.873 43.5575 14.8362C43.5601 14.7998 48.4704 14.77 54.527 14.77C60.5818 14.77 65.4894 14.7998 65.4871 14.8362Z" fill="#263238"/>
<path d="M65.3321 17.4654C65.3301 17.5019 60.4131 17.5317 54.3512 17.5317C48.2873 17.5317 43.3751 17.5022 43.3777 17.4654C43.3803 17.429 48.2961 17.3992 54.3597 17.3992C60.4213 17.3992 65.3345 17.429 65.3321 17.4654Z" fill="#263238"/>
<path d="M65.177 20.0936C65.1749 20.1301 60.2524 20.1598 54.1835 20.1598C48.1126 20.1598 43.195 20.1301 43.1974 20.0936C43.1997 20.0571 48.1214 20.0277 54.1917 20.0277C60.2606 20.0274 65.1793 20.0571 65.177 20.0936Z" fill="#263238"/>
<path d="M56.2664 22.7223C56.2641 22.7588 53.2961 22.7886 49.6381 22.7886C45.9787 22.7886 43.0154 22.7591 43.0177 22.7223C43.0203 22.6859 45.9875 22.6561 49.6469 22.6561C53.3045 22.6564 56.2685 22.6859 56.2664 22.7223Z" fill="#263238"/>
<path d="M65.4895 29.0721C65.4874 29.1086 53.2946 29.1384 38.2596 29.1384C23.2194 29.1384 11.0333 29.1086 11.0363 29.0721C11.0392 29.0357 23.2293 29.0059 38.2687 29.0059C53.3028 29.0059 65.4915 29.0357 65.4895 29.0721Z" fill="#263238"/>
<path d="M65.3943 30.692C65.3923 30.7285 53.3242 30.7582 38.4431 30.7582C23.557 30.7582 11.4956 30.7288 11.4985 30.692C11.5015 30.6555 23.567 30.6261 38.4522 30.6261C53.3327 30.6258 65.3964 30.6555 65.3943 30.692Z" fill="#263238"/>
<path d="M65.0578 36.4313H10.432L10.6886 33.3044H65.2413L65.0578 36.4313Z" fill="#E0E0E0"/>
<path d="M62.7823 65.0914H7.48413L7.74161 61.9645H62.9664L62.7823 65.0914Z" fill="#E0E0E0"/>
<path d="M31.2539 49.6912H9.34363L9.60022 46.5646H31.4812L31.2539 49.6912Z" fill="#E0E0E0"/>
<path d="M63.6892 49.6912H36.2964L36.517 46.5646H63.8732L63.6892 49.6912Z" fill="#E0E0E0"/>
<path d="M41.8055 39.1941C41.8029 39.2305 34.7822 39.2603 26.1262 39.2603C17.4671 39.2603 10.4522 39.2308 10.4554 39.1941C10.4584 39.1576 17.4779 39.1279 26.1362 39.1279C34.7919 39.1279 41.8081 39.1576 41.8055 39.1941Z" fill="#263238"/>
<path d="M64.4464 41.6543C64.4444 41.6908 52.2967 41.7206 37.3173 41.7206C22.3326 41.7206 10.1919 41.6908 10.1948 41.6543C10.1978 41.6179 22.3428 41.5884 37.3266 41.5884C52.3052 41.5881 64.4485 41.6179 64.4464 41.6543Z" fill="#263238"/>
<path d="M64.3095 43.985C64.3074 44.0214 52.1474 44.0512 37.1531 44.0512C22.1535 44.0512 10.0005 44.0217 10.0034 43.985C10.0063 43.9485 22.1637 43.9187 37.1621 43.9187C52.1559 43.9187 64.3115 43.9485 64.3095 43.985Z" fill="#263238"/>
<path d="M30.9242 51.5986C30.9215 51.6351 26.0139 51.6649 19.9644 51.6649C13.9127 51.6649 9.01099 51.6354 9.01392 51.5986C9.01684 51.5622 13.9233 51.5324 19.9746 51.5324C26.0239 51.5327 30.9268 51.5622 30.9242 51.5986Z" fill="#263238"/>
<path d="M30.7491 54.0003C30.7465 54.0367 25.9155 54.0665 19.9605 54.0665C14.0034 54.0665 9.17798 54.037 9.18091 54.0003C9.18384 53.9638 14.0139 53.9341 19.9707 53.9341C25.9255 53.9343 30.7518 53.9638 30.7491 54.0003Z" fill="#263238"/>
<path d="M30.4818 56.4411C30.4791 56.4775 25.6017 56.5073 19.5893 56.5073C13.5745 56.5073 8.70289 56.4775 8.70581 56.4411C8.70874 56.4046 13.585 56.3748 19.5995 56.3748C25.6116 56.3748 30.4847 56.4046 30.4818 56.4411Z" fill="#263238"/>
<path d="M30.3094 58.8108C30.3068 58.8473 25.4243 58.877 19.4058 58.877C13.3852 58.877 8.50831 58.8475 8.51123 58.8108C8.51416 58.7743 13.3954 58.7446 19.416 58.7446C25.4343 58.7446 30.3121 58.7743 30.3094 58.8108Z" fill="#263238"/>
<path d="M63.1218 52.1622C63.1197 52.1987 58.036 52.2284 51.7687 52.2284C45.4991 52.2284 40.4203 52.199 40.423 52.1622C40.4256 52.1257 45.5079 52.096 51.7772 52.096C58.0442 52.096 63.1238 52.1257 63.1218 52.1622Z" fill="#263238"/>
<path d="M38.6268 52.9274C38.6187 52.9189 38.6213 52.7573 38.6289 52.488C38.6368 52.2182 38.6497 51.8427 38.6751 51.396L38.7295 51.4532C38.2649 51.4558 37.7336 51.4591 37.1665 51.462C37.1507 51.4763 37.3029 51.3371 37.2385 51.396V51.3963V51.3972V51.399L37.2382 51.4022L37.2379 51.4086L37.237 51.4217L37.2353 51.448L37.2315 51.5002L37.2242 51.604C37.2192 51.6729 37.2142 51.7412 37.2093 51.8089C37.1993 51.9436 37.1894 52.0758 37.1797 52.2047C37.1595 52.4594 37.1402 52.7013 37.1223 52.9271L37.0679 52.8699C37.5235 52.8755 37.9059 52.8883 38.1806 52.8991C38.4545 52.9105 38.6187 52.9189 38.6268 52.9274C38.635 52.9358 38.4864 52.9446 38.2134 52.9554C37.941 52.9659 37.5416 52.979 37.0592 52.9846L37.0012 52.9852L37.0047 52.9274C37.0185 52.7013 37.0331 52.4597 37.0486 52.205C37.0571 52.0761 37.0659 51.9439 37.0747 51.8091C37.0793 51.7415 37.084 51.6732 37.0884 51.6043L37.0957 51.5005L37.0992 51.4483L37.101 51.422L37.1019 51.4089L37.1025 51.4025L37.1027 51.3992V51.3975V51.3966V51.3963C37.0384 51.4553 37.1905 51.3155 37.175 51.3301C37.7415 51.3333 38.2725 51.3362 38.7366 51.3391L38.7957 51.3394L38.791 51.3963C38.7524 51.8684 38.7123 52.2587 38.6827 52.5248C38.6538 52.7911 38.635 52.9361 38.6268 52.9274Z" fill="#263238"/>
<path d="M62.9479 55.1037C62.9459 55.1402 57.8557 55.17 51.5805 55.17C45.303 55.17 40.2178 55.1405 40.2205 55.1037C40.2231 55.0673 45.3118 55.0375 51.589 55.0375C57.8639 55.0375 62.9503 55.067 62.9479 55.1037Z" fill="#263238"/>
<path d="M38.4223 55.8692C38.4141 55.8607 38.4167 55.6991 38.4241 55.4298C38.432 55.1599 38.4448 54.7845 38.4703 54.3378L38.5247 54.395C38.0595 54.3976 37.5276 54.4008 36.9599 54.404C36.9441 54.4183 37.0963 54.2792 37.0319 54.3381V54.3384V54.3393V54.341L37.0316 54.3442L37.0313 54.3506L37.0305 54.3638L37.0287 54.39L37.0249 54.4423L37.0176 54.5461C37.0126 54.615 37.0076 54.6832 37.0027 54.7509C36.9927 54.8857 36.9828 55.0179 36.9731 55.1468C36.9529 55.4015 36.9336 55.6434 36.9158 55.8692L36.8613 55.812C37.3175 55.8175 37.7002 55.8304 37.9755 55.8412C38.25 55.8522 38.4141 55.8607 38.4223 55.8692C38.4305 55.8776 38.2816 55.8864 38.0083 55.8972C37.7356 55.908 37.3356 55.9208 36.8529 55.9263L36.7949 55.9269L36.7984 55.8692C36.8122 55.6431 36.8268 55.4015 36.8423 55.1468C36.8508 55.0179 36.8596 54.8857 36.8684 54.7509C36.873 54.6832 36.8774 54.615 36.8824 54.5461L36.8894 54.4423L36.8929 54.39L36.8947 54.3638L36.8956 54.3506L36.8962 54.3442L36.8965 54.341V54.3393V54.3384V54.3381C36.8321 54.397 36.9842 54.2573 36.9687 54.2716C37.536 54.2748 38.0677 54.278 38.5323 54.2806L38.5914 54.2809L38.5867 54.3378C38.5481 54.8096 38.508 55.2002 38.4785 55.4663C38.4492 55.7329 38.4305 55.8779 38.4223 55.8692Z" fill="#263238"/>
<path d="M62.7744 58.0453C62.7724 58.0818 57.6758 58.1116 51.3927 58.1116C45.1073 58.1116 40.016 58.0818 40.0183 58.0453C40.0209 58.0089 45.1161 57.9791 51.4009 57.9791C57.684 57.9794 62.7765 58.0089 62.7744 58.0453Z" fill="#263238"/>
<path d="M38.2181 58.8111C38.2099 58.8026 38.2123 58.641 38.2199 58.3717C38.2278 58.1018 38.2407 57.7264 38.2661 57.2797L38.3205 57.3369C37.8547 57.3395 37.3219 57.3427 36.7537 57.3459C36.7379 57.3602 36.8904 57.2211 36.8257 57.28V57.2803V57.2812V57.2829L36.8254 57.2861L36.8248 57.2928L36.8239 57.306L36.8222 57.3322L36.8184 57.3844L36.8111 57.4883C36.8061 57.5572 36.8011 57.6254 36.7961 57.6931C36.7862 57.8279 36.7763 57.9601 36.7666 58.089C36.7464 58.3437 36.7271 58.5855 36.7092 58.8114L36.6548 58.7542C37.1116 58.7597 37.4949 58.7725 37.7705 58.7833C38.0452 58.7938 38.2099 58.8026 38.2181 58.8111C38.2263 58.8195 38.0774 58.8283 37.8038 58.8391C37.5308 58.8499 37.1303 58.8627 36.6469 58.8682L36.589 58.8688L36.5925 58.8111C36.6063 58.585 36.6209 58.3434 36.6364 58.0887C36.6449 57.9598 36.6537 57.8276 36.6624 57.6928C36.6671 57.6251 36.6715 57.5569 36.6762 57.488L36.6835 57.3842L36.687 57.3319L36.6888 57.3057L36.6896 57.2925L36.6902 57.2858L36.6905 57.2826V57.2809V57.28V57.2797C36.6262 57.3386 36.7786 57.1989 36.7628 57.2132C37.3307 57.2164 37.8629 57.2196 38.3284 57.2222L38.3875 57.2225L38.3829 57.2794C38.3442 57.7512 38.3042 58.1415 38.2746 58.4079C38.245 58.6745 38.2263 58.8195 38.2181 58.8111Z" fill="#263238"/>
<path d="M61.3379 82.3665C61.3379 82.3665 61.3403 82.2805 61.3485 82.1159C61.3573 81.9493 61.3704 81.7048 61.3874 81.3836C61.4231 80.7377 61.476 79.7849 61.5448 78.5464C61.6858 76.0704 61.8915 72.4543 62.1516 67.8821L62.1908 67.9227C49.7107 67.9285 29.9144 67.9378 7.67676 67.948H7.67355L7.74669 67.8818C7.33677 72.8657 6.93739 77.7232 6.55556 82.3662L6.49412 82.3017C22.176 82.3134 35.878 82.3239 45.6625 82.3312C50.5581 82.3391 54.4732 82.3452 57.1668 82.3496C58.513 82.3534 59.5534 82.356 60.2603 82.3581C60.6117 82.3598 60.8797 82.3613 61.0623 82.3621C61.2437 82.3639 61.3379 82.3665 61.3379 82.3665C61.3379 82.3665 61.249 82.3691 61.0708 82.3706C60.8897 82.3715 60.6243 82.3729 60.2764 82.3747C59.5727 82.3767 58.5367 82.3793 57.196 82.3831C54.5051 82.3875 50.5946 82.3936 45.7043 82.4015C35.907 82.4088 22.1866 82.4193 6.48359 82.431H6.41687L6.42214 82.3665C6.80309 77.7234 7.20189 72.8659 7.61093 67.8821L7.61619 67.8159H7.68408H7.6873C29.9223 67.8264 49.7163 67.8354 62.1952 67.8413H62.2371L62.2344 67.8818C61.9538 72.4642 61.7321 76.0888 61.5802 78.5704C61.503 79.805 61.4433 80.7549 61.4029 81.3985C61.3821 81.7165 61.3663 81.9584 61.3558 82.1235C61.3455 82.286 61.3379 82.3665 61.3379 82.3665Z" fill="#263238"/>
<path d="M61.9781 71.5271C61.9761 71.5636 49.7848 71.5933 34.7518 71.5933C19.7136 71.5933 7.5293 71.5639 7.53223 71.5271C7.53515 71.4907 19.7238 71.4609 34.7612 71.4609C49.7932 71.4609 61.9802 71.4907 61.9781 71.5271Z" fill="#263238"/>
<path d="M61.7657 75.1242C61.7636 75.1607 49.5539 75.1904 34.4978 75.1904C19.4368 75.1904 7.23377 75.1607 7.23669 75.1242C7.23962 75.0877 19.4467 75.0583 34.5072 75.0583C49.5624 75.0583 61.7677 75.0877 61.7657 75.1242Z" fill="#263238"/>
<path d="M61.5509 78.7604C61.5488 78.7969 49.3204 78.8266 34.2412 78.8266C19.1571 78.8266 6.93531 78.7972 6.93823 78.7604C6.94116 78.7239 19.1673 78.6942 34.2506 78.6942C49.3286 78.6945 61.5529 78.7239 61.5509 78.7604Z" fill="#263238"/>
<path d="M12.8544 82.4937C12.8167 82.4937 13.0466 79.2174 13.3679 75.1768C13.6892 71.1347 13.98 67.859 14.0174 67.859C14.0549 67.859 13.8252 71.1347 13.5039 75.1768C13.183 79.2171 12.8921 82.4937 12.8544 82.4937Z" fill="#263238"/>
<path d="M31.4344 82.0535C31.3966 82.0535 31.5903 78.9249 31.8668 75.0666C32.1436 71.2069 32.3982 68.0791 32.4356 68.0791C32.4731 68.0791 32.2794 71.2069 32.0029 75.0666C31.727 78.9249 31.4721 82.0535 31.4344 82.0535Z" fill="#263238"/>
<path d="M50.9334 82.7136C50.8956 82.7136 51.0697 79.4866 51.3225 75.5067C51.5753 71.5256 51.8103 68.2992 51.848 68.2992C51.8855 68.2992 51.7114 71.5256 51.4589 75.5067C51.2064 79.4863 50.9711 82.7136 50.9334 82.7136Z" fill="#263238"/>
<path d="M49.3219 85.6133C49.3195 85.6497 39.727 85.6795 27.8988 85.6795C16.0667 85.6795 6.48035 85.65 6.48328 85.6133C6.4862 85.5768 16.077 85.547 27.9084 85.547C39.7358 85.547 49.3242 85.5768 49.3219 85.6133Z" fill="#263238"/>
<path d="M49.1878 87.7069C49.1855 87.7434 39.5844 87.7731 27.746 87.7731C15.9034 87.7731 6.30884 87.7434 6.31177 87.7069C6.31469 87.6704 15.9137 87.6407 27.7556 87.6407C39.5932 87.641 49.1901 87.6704 49.1878 87.7069Z" fill="#263238"/>
<path d="M25.6678 89.8002C25.6651 89.8367 21.2909 89.8664 15.8991 89.8664C10.5055 89.8664 6.13685 89.837 6.13977 89.8002C6.1427 89.7637 10.516 89.7343 15.9093 89.7343C21.3009 89.7343 25.6704 89.7637 25.6678 89.8002Z" fill="#263238"/>
<path d="M28.469 35.2479C28.469 35.2899 24.898 35.3237 20.4939 35.3237C16.0881 35.3237 12.5179 35.2896 12.5179 35.2479C12.5179 35.2058 16.0881 35.172 20.4939 35.172C24.898 35.1717 28.469 35.2058 28.469 35.2479Z" fill="#263238"/>
<path d="M8.18792 96.0298C8.18792 96.0298 7.97228 96.0251 7.55066 96.0088C7.44591 95.9997 7.32566 96.0111 7.19722 95.9837C7.06789 95.9609 6.92628 95.9358 6.77238 95.9087C6.4596 95.8734 6.11668 95.7506 5.72432 95.6254C4.95832 95.3325 4.04427 94.8319 3.19078 93.9777C2.34169 93.1293 1.54205 91.9495 1.0385 90.4677C0.929657 90.0928 0.793311 89.7136 0.725723 89.3057C0.688856 89.1029 0.631217 88.901 0.609858 88.6904C0.586159 88.4804 0.561871 88.2674 0.537586 88.0521C0.504523 87.8371 0.520622 87.6165 0.509504 87.3948C0.504823 87.1728 0.493996 86.9478 0.519451 86.7214C0.536421 86.4948 0.553386 86.2655 0.570356 86.0335C0.594641 85.803 0.618926 85.5699 0.643503 85.3342C0.841294 83.4493 1.05606 81.4012 1.28691 79.2012C1.74978 74.8003 2.27674 69.7896 2.85958 64.2506C4.02847 53.1723 5.42032 39.9821 6.96577 25.3358C7.35287 21.6741 7.74962 17.9217 8.15486 14.0885C8.35762 12.1718 8.56243 10.2352 8.76929 8.27937C8.87258 7.30145 8.97674 6.31886 9.0812 5.3319C9.13708 4.8374 9.17775 4.34581 9.24622 3.84577C9.32492 3.34339 9.50662 2.85355 9.79189 2.4279C10.0769 2.00254 10.4529 1.63757 10.8888 1.36363C11.3271 1.09347 11.8263 0.920763 12.3395 0.857455C12.5972 0.825655 12.8565 0.827989 13.1078 0.828572H13.87C14.3788 0.828572 14.8885 0.828572 15.3994 0.828572C17.4428 0.828281 19.5026 0.828281 21.5777 0.827989C25.7278 0.827989 29.9384 0.827698 34.1994 0.827698C42.7246 0.828281 51.0476 0.828864 59.0862 0.829156C61.0957 0.829447 63.0876 0.829741 65.0603 0.830033C66.0466 0.830324 67.0282 0.830324 68.0049 0.830616C68.4932 0.830616 68.9804 0.830907 69.4661 0.830907C69.9462 0.835284 70.4462 0.805525 70.929 0.933308C71.8937 1.16758 72.7135 1.8555 73.1471 2.72548C73.3669 3.15959 73.495 3.63775 73.524 4.12C73.5553 4.6075 73.4675 5.07779 73.4228 5.54487C73.213 7.41902 73.0058 9.27158 72.801 11.1014C71.1602 25.7395 69.6823 38.9213 68.4414 49.9917C67.195 61.0601 66.1864 70.0172 65.4892 76.2091C65.1375 79.3027 64.8642 81.7052 64.679 83.3361C64.5848 84.1494 64.5131 84.77 64.4645 85.1892C64.4154 85.6067 64.3861 85.82 64.3861 85.82C64.3861 85.82 64.4049 85.6055 64.449 85.1875C64.4941 84.7679 64.5611 84.1468 64.6486 83.3329C64.8277 81.7012 65.091 79.2978 65.4304 76.2027C66.1162 70.0096 67.1084 61.0508 68.3343 49.9801C69.5661 38.9085 71.0329 25.7255 72.6614 11.0859C72.8654 9.25612 73.0716 7.40327 73.2805 5.52912C73.3256 5.05941 73.4116 4.59029 73.3806 4.12905C73.3525 3.66576 73.2293 3.20714 73.0184 2.79054C72.6015 1.95557 71.8159 1.2974 70.8939 1.07422C70.436 0.952564 69.9541 0.980863 69.4661 0.976778C68.9801 0.976778 68.4932 0.97707 68.0049 0.97707C67.0282 0.977362 66.0466 0.977361 65.0603 0.977653C63.0876 0.977945 61.0957 0.978236 59.0862 0.978528C51.0479 0.979111 42.7246 0.979404 34.1994 0.979988C29.9384 0.979696 25.7275 0.979694 21.5777 0.979694C19.5026 0.979694 17.4428 0.979403 15.3994 0.979111C14.8885 0.979111 14.3788 0.979111 13.87 0.978819H13.1078C12.8521 0.978236 12.6022 0.976194 12.3573 1.00654C11.8658 1.06722 11.388 1.23205 10.9678 1.49083C10.55 1.7531 10.1898 2.1029 9.91654 2.51046C9.64297 2.91803 9.46887 3.38773 9.39339 3.86881C9.32638 4.35631 9.28425 4.85694 9.22866 5.34882C9.12391 6.33578 9.01975 7.31837 8.91588 8.29629C8.70844 10.2518 8.50275 12.1887 8.2994 14.1052C7.89241 17.9384 7.4939 21.6907 7.10534 25.3521C5.5476 39.997 4.14492 53.1863 2.96666 64.2637C2.37563 69.8019 1.84108 74.812 1.37176 79.212C1.13652 81.4117 0.91737 83.4592 0.715775 85.3438C0.690613 85.5793 0.665447 85.8124 0.640869 86.0429C0.623314 86.273 0.605763 86.5009 0.5885 86.7261C0.562459 86.9511 0.572992 87.1745 0.577088 87.3951C0.587329 87.6153 0.570941 87.8344 0.603126 88.048C0.626825 88.2621 0.650239 88.4737 0.673353 88.6825C0.693835 88.8917 0.750597 89.0927 0.786878 89.2943C0.852711 89.6998 0.987595 90.0771 1.09468 90.4502C1.59091 91.9247 2.38207 93.1004 3.22268 93.947C4.06797 94.7995 4.97412 95.3016 5.73485 95.598C6.12458 95.7252 6.46545 95.8498 6.77676 95.8874C6.92979 95.916 7.07082 95.9419 7.19956 95.9659C7.32771 95.9945 7.44738 95.9845 7.55184 95.9948C7.97199 96.0146 8.18792 96.0298 8.18792 96.0298Z" fill="#263238"/>
<path d="M91.2335 78.8386C91.2335 78.8386 91.3037 78.8334 91.4409 78.8305C91.5825 78.8281 91.7856 78.8246 92.0513 78.8205C92.5931 78.8147 93.386 78.8065 94.4104 78.7958C96.4702 78.7803 99.4578 78.7581 103.19 78.7301L103.245 78.7298L103.241 78.7847C102.979 82.8536 102.643 87.8567 102.222 93.4899C102.009 96.3064 101.778 99.2804 101.497 102.372C101.353 103.918 101.21 105.493 100.986 107.09C100.94 107.49 100.847 107.886 100.772 108.286C100.669 108.681 100.575 109.079 100.437 109.467C100.176 110.245 99.8265 111.003 99.3628 111.7C98.9095 112.369 98.3618 112.977 97.7029 113.377L97.7134 113.371C97.101 113.829 96.3769 114.11 95.6404 114.24C94.9022 114.37 94.1494 114.356 93.4247 114.234C91.9687 113.997 90.6322 113.293 89.6055 112.314C88.5934 111.31 87.9313 110.03 87.6109 108.711C87.2853 107.388 87.2689 106.045 87.3596 104.762C87.4049 104.118 87.4866 103.488 87.5547 102.867C87.6249 102.245 87.6943 101.632 87.7625 101.028C87.8994 99.8204 88.0319 98.6485 88.1601 97.5165C88.4173 95.2526 88.6566 93.1471 88.8746 91.2266C89.3149 87.3896 89.6702 84.2939 89.9159 82.1522C90.0414 81.0871 90.1389 80.26 90.2056 79.6943C90.2398 79.4169 90.2662 79.2045 90.2846 79.0566C90.303 78.913 90.3165 78.8401 90.3165 78.8401C90.3165 78.8401 90.3133 78.9142 90.2995 79.0583C90.2846 79.2068 90.2632 79.4198 90.2351 79.6978C90.1749 80.2644 90.0868 81.0923 89.9733 82.1589C89.7386 84.3018 89.3995 87.3992 88.9794 91.2382C88.7669 93.1594 88.5337 95.2657 88.2833 97.5302C88.1575 98.6628 88.0276 99.8347 87.8933 101.043C87.8263 101.647 87.7578 102.26 87.6887 102.882C87.6214 103.504 87.5413 104.134 87.4971 104.772C87.409 106.046 87.428 107.375 87.7502 108.677C88.0668 109.974 88.7192 111.228 89.7085 112.209C90.7135 113.166 92.0243 113.856 93.4498 114.086C94.1591 114.205 94.8946 114.219 95.6132 114.092C96.3301 113.965 97.0314 113.691 97.6219 113.25L97.6233 113.249L97.6324 113.243C98.2454 112.87 98.7966 112.27 99.2361 111.616C99.6905 110.933 100.035 110.187 100.293 109.419C100.429 109.037 100.522 108.643 100.624 108.254C100.697 107.858 100.79 107.467 100.836 107.068C101.059 105.481 101.203 103.904 101.348 102.36C101.631 99.2699 101.866 96.2962 102.083 93.4806C102.512 87.8488 102.861 82.8466 103.138 78.7791L103.19 78.8337C99.4573 78.8418 96.4699 78.8483 94.4098 78.8526C93.3852 78.8518 92.5922 78.8509 92.0504 78.8506C91.7847 78.8488 91.5816 78.8474 91.44 78.8465C91.3037 78.8433 91.2335 78.8386 91.2335 78.8386Z" fill="#263238"/>
<path d="M24.6109 96.529C24.6109 96.529 24.6063 96.604 24.589 96.749C24.5706 96.8986 24.5442 97.1134 24.5097 97.3931C24.4363 97.9635 24.3289 98.7964 24.1905 99.8677C24.0492 100.943 23.8763 102.257 23.6758 103.782C23.5816 104.545 23.4523 105.361 23.3671 106.226C23.2662 107.086 23.3607 108.019 23.6562 108.932C24.2326 110.764 25.7161 112.501 27.7864 113.438C28.8155 113.91 29.9788 114.183 31.1863 114.21C32.3973 114.233 33.654 114.215 34.937 114.219C40.0746 114.217 45.7218 114.216 51.65 114.214C63.5086 114.223 74.2426 114.231 82.017 114.237C85.8996 114.247 89.042 114.255 91.2192 114.261C92.3023 114.267 93.1444 114.272 93.7211 114.275C94.0038 114.279 94.2206 114.281 94.3718 114.283C94.5184 114.286 94.5936 114.291 94.5936 114.291C94.5936 114.291 94.5184 114.296 94.3718 114.299C94.2206 114.3 94.0038 114.303 93.7211 114.306C93.1444 114.31 92.3023 114.314 91.2192 114.321C89.0417 114.326 85.8993 114.334 82.017 114.345C74.2426 114.35 63.5089 114.358 51.6506 114.366C45.7227 114.364 40.0755 114.362 34.9379 114.36C33.6525 114.353 32.4038 114.37 31.1819 114.344C29.9577 114.315 28.7765 114.034 27.7332 113.553C25.6338 112.597 24.1323 110.828 23.5532 108.965C23.2563 108.036 23.1644 107.089 23.2703 106.217C23.3601 105.346 23.4927 104.535 23.591 103.771C23.8014 102.248 23.9828 100.935 24.1311 99.8607C24.2815 98.7909 24.3985 97.9594 24.4787 97.3899C24.5197 97.111 24.551 96.8972 24.5729 96.7478C24.596 96.6025 24.6109 96.529 24.6109 96.529Z" fill="#263238"/>
<path d="M90.3169 78.8389C90.3169 78.8389 90.3169 78.789 90.3245 78.6927C90.3335 78.59 90.3461 78.4479 90.3622 78.265C90.3994 77.8825 90.4529 77.33 90.5217 76.6216C90.6674 75.1886 90.8775 73.1266 91.1367 70.5811C91.671 65.4765 92.4083 58.4353 93.2226 50.6581C93.6363 46.7677 94.0304 43.062 94.3891 39.6906C94.57 38.0058 94.7417 36.4044 94.9026 34.9052C94.9834 34.156 95.0615 33.4325 95.1364 32.7367C95.1738 32.3889 95.2107 32.0482 95.247 31.7147C95.2637 31.5481 95.2862 31.3827 95.2973 31.2205C95.3032 31.0589 95.309 30.8993 95.3149 30.7414C95.297 30.1078 95.108 29.5182 94.8353 29.0187C94.5582 28.521 94.2153 28.093 93.8326 27.7616C93.0772 27.0827 92.2547 26.7224 91.5797 26.5018C91.2412 26.3843 90.9266 26.3309 90.6577 26.2687C90.3845 26.2326 90.1533 26.1955 89.9655 26.1798C89.7817 26.1696 89.6392 26.1614 89.5362 26.1558C89.4394 26.1497 89.3896 26.1424 89.3896 26.1424C89.3896 26.1424 89.4394 26.1392 89.5362 26.1404C89.6395 26.1424 89.7829 26.1456 89.9675 26.1494C90.1565 26.1602 90.3894 26.1926 90.665 26.2244C90.9363 26.2819 91.254 26.3312 91.5969 26.4455C92.2807 26.6594 93.1158 27.015 93.8891 27.6983C94.2806 28.0317 94.6334 28.465 94.9202 28.9726C95.2025 29.4817 95.4006 30.0862 95.4223 30.7379C95.417 30.9001 95.412 31.0647 95.4067 31.2307C95.3962 31.3958 95.3746 31.5595 95.3588 31.7267C95.3242 32.0604 95.2888 32.4012 95.2528 32.7492C95.1806 33.4453 95.1054 34.1691 95.0276 34.9186C94.871 36.4182 94.704 38.0198 94.5281 39.7055C94.1732 43.0775 93.7829 46.7834 93.3736 50.6744C92.542 58.4496 91.7892 65.4893 91.2432 70.5928C90.9638 73.1362 90.7373 75.1965 90.5802 76.6284C90.4992 77.3355 90.4359 77.8869 90.3924 78.2685C90.3698 78.4509 90.3523 78.5924 90.3397 78.6948C90.3271 78.7902 90.3169 78.8389 90.3169 78.8389Z" fill="#263238"/>
</svg>
